<?xml version="1.0" encoding="utf-8" standalone="no"?>
<!DOCTYPE svg PUBLIC "-//W3C//DTD SVG 1.1//EN"
  "http://www.w3.org/Graphics/SVG/1.1/DTD/svg11.dtd">
<svg xmlns:xlink="http://www.w3.org/1999/xlink" width="502.56pt" height="341.28pt" viewBox="0 0 502.56 341.28" xmlns="http://www.w3.org/2000/svg" version="1.1">
 <metadata>
  <rdf:RDF xmlns:dc="http://purl.org/dc/elements/1.1/" xmlns:cc="http://creativecommons.org/ns#" xmlns:rdf="http://www.w3.org/1999/02/22-rdf-syntax-ns#">
   <cc:Work>
    <dc:type rdf:resource="http://purl.org/dc/dcmitype/StillImage"/>
    <dc:date>2024-09-07T20:01:34.763690</dc:date>
    <dc:format>image/svg+xml</dc:format>
    <dc:creator>
     <cc:Agent>
      <dc:title>Matplotlib v3.7.2, https://matplotlib.org/</dc:title>
     </cc:Agent>
    </dc:creator>
   </cc:Work>
  </rdf:RDF>
 </metadata>
 <defs>
  <style type="text/css">*{stroke-linejoin: round; stroke-linecap: butt}</style>
 </defs>
 <g id="figure_1">
  <g id="patch_1">
   <path d="M 0 341.28 
L 502.56 341.28 
L 502.56 0 
L 0 0 
z
" style="fill: #ffffff"/>
  </g>
  <g id="axes_1">
   <g id="patch_2">
    <path d="M 62.82 303.7392 
L 452.304 303.7392 
L 452.304 40.9536 
L 62.82 40.9536 
z
" style="fill: #ffffff"/>
   </g>
   <g id="matplotlib.axis_1">
    <g id="xtick_1">
     <g id="line2d_1">
      <defs>
       <path id="m8aff1db994" d="M 0 0 
L 0 3.5 
" style="stroke: #000000; stroke-width: 0.8"/>
      </defs>
      <g>
       <use xlink:href="#m8aff1db994" x="73.29777" y="303.7392" style="stroke: #000000; stroke-width: 0.8"/>
      </g>
     </g>
     <g id="text_1">
      <!-- 0 -->
      <g transform="translate(70.11652 318.337638) scale(0.1 -0.1)">
       <defs>
        <path id="DejaVuSans-30" d="M 2034 4250 
Q 1547 4250 1301 3770 
Q 1056 3291 1056 2328 
Q 1056 1369 1301 889 
Q 1547 409 2034 409 
Q 2525 409 2770 889 
Q 3016 1369 3016 2328 
Q 3016 3291 2770 3770 
Q 2525 4250 2034 4250 
z
M 2034 4750 
Q 2819 4750 3233 4129 
Q 3647 3509 3647 2328 
Q 3647 1150 3233 529 
Q 2819 -91 2034 -91 
Q 1250 -91 836 529 
Q 422 1150 422 2328 
Q 422 3509 836 4129 
Q 1250 4750 2034 4750 
z
" transform="scale(0.015625)"/>
       </defs>
       <use xlink:href="#DejaVuSans-30"/>
      </g>
     </g>
    </g>
    <g id="xtick_2">
     <g id="line2d_2">
      <g>
       <use xlink:href="#m8aff1db994" x="145.558252" y="303.7392" style="stroke: #000000; stroke-width: 0.8"/>
      </g>
     </g>
     <g id="text_2">
      <!-- 10 -->
      <g transform="translate(139.195752 318.337638) scale(0.1 -0.1)">
       <defs>
        <path id="DejaVuSans-31" d="M 794 531 
L 1825 531 
L 1825 4091 
L 703 3866 
L 703 4441 
L 1819 4666 
L 2450 4666 
L 2450 531 
L 3481 531 
L 3481 0 
L 794 0 
L 794 531 
z
" transform="scale(0.015625)"/>
       </defs>
       <use xlink:href="#DejaVuSans-31"/>
       <use xlink:href="#DejaVuSans-30" x="63.623047"/>
      </g>
     </g>
    </g>
    <g id="xtick_3">
     <g id="line2d_3">
      <g>
       <use xlink:href="#m8aff1db994" x="217.818735" y="303.7392" style="stroke: #000000; stroke-width: 0.8"/>
      </g>
     </g>
     <g id="text_3">
      <!-- 20 -->
      <g transform="translate(211.456235 318.337638) scale(0.1 -0.1)">
       <defs>
        <path id="DejaVuSans-32" d="M 1228 531 
L 3431 531 
L 3431 0 
L 469 0 
L 469 531 
Q 828 903 1448 1529 
Q 2069 2156 2228 2338 
Q 2531 2678 2651 2914 
Q 2772 3150 2772 3378 
Q 2772 3750 2511 3984 
Q 2250 4219 1831 4219 
Q 1534 4219 1204 4116 
Q 875 4013 500 3803 
L 500 4441 
Q 881 4594 1212 4672 
Q 1544 4750 1819 4750 
Q 2544 4750 2975 4387 
Q 3406 4025 3406 3419 
Q 3406 3131 3298 2873 
Q 3191 2616 2906 2266 
Q 2828 2175 2409 1742 
Q 1991 1309 1228 531 
z
" transform="scale(0.015625)"/>
       </defs>
       <use xlink:href="#DejaVuSans-32"/>
       <use xlink:href="#DejaVuSans-30" x="63.623047"/>
      </g>
     </g>
    </g>
    <g id="xtick_4">
     <g id="line2d_4">
      <g>
       <use xlink:href="#m8aff1db994" x="290.079217" y="303.7392" style="stroke: #000000; stroke-width: 0.8"/>
      </g>
     </g>
     <g id="text_4">
      <!-- 30 -->
      <g transform="translate(283.716717 318.337638) scale(0.1 -0.1)">
       <defs>
        <path id="DejaVuSans-33" d="M 2597 2516 
Q 3050 2419 3304 2112 
Q 3559 1806 3559 1356 
Q 3559 666 3084 287 
Q 2609 -91 1734 -91 
Q 1441 -91 1130 -33 
Q 819 25 488 141 
L 488 750 
Q 750 597 1062 519 
Q 1375 441 1716 441 
Q 2309 441 2620 675 
Q 2931 909 2931 1356 
Q 2931 1769 2642 2001 
Q 2353 2234 1838 2234 
L 1294 2234 
L 1294 2753 
L 1863 2753 
Q 2328 2753 2575 2939 
Q 2822 3125 2822 3475 
Q 2822 3834 2567 4026 
Q 2313 4219 1838 4219 
Q 1578 4219 1281 4162 
Q 984 4106 628 3988 
L 628 4550 
Q 988 4650 1302 4700 
Q 1616 4750 1894 4750 
Q 2613 4750 3031 4423 
Q 3450 4097 3450 3541 
Q 3450 3153 3228 2886 
Q 3006 2619 2597 2516 
z
" transform="scale(0.015625)"/>
       </defs>
       <use xlink:href="#DejaVuSans-33"/>
       <use xlink:href="#DejaVuSans-30" x="63.623047"/>
      </g>
     </g>
    </g>
    <g id="xtick_5">
     <g id="line2d_5">
      <g>
       <use xlink:href="#m8aff1db994" x="362.339699" y="303.7392" style="stroke: #000000; stroke-width: 0.8"/>
      </g>
     </g>
     <g id="text_5">
      <!-- 40 -->
      <g transform="translate(355.977199 318.337638) scale(0.1 -0.1)">
       <defs>
        <path id="DejaVuSans-34" d="M 2419 4116 
L 825 1625 
L 2419 1625 
L 2419 4116 
z
M 2253 4666 
L 3047 4666 
L 3047 1625 
L 3713 1625 
L 3713 1100 
L 3047 1100 
L 3047 0 
L 2419 0 
L 2419 1100 
L 313 1100 
L 313 1709 
L 2253 4666 
z
" transform="scale(0.015625)"/>
       </defs>
       <use xlink:href="#DejaVuSans-34"/>
       <use xlink:href="#DejaVuSans-30" x="63.623047"/>
      </g>
     </g>
    </g>
    <g id="xtick_6">
     <g id="line2d_6">
      <g>
       <use xlink:href="#m8aff1db994" x="434.600182" y="303.7392" style="stroke: #000000; stroke-width: 0.8"/>
      </g>
     </g>
     <g id="text_6">
      <!-- 50 -->
      <g transform="translate(428.237682 318.337638) scale(0.1 -0.1)">
       <defs>
        <path id="DejaVuSans-35" d="M 691 4666 
L 3169 4666 
L 3169 4134 
L 1269 4134 
L 1269 2991 
Q 1406 3038 1543 3061 
Q 1681 3084 1819 3084 
Q 2600 3084 3056 2656 
Q 3513 2228 3513 1497 
Q 3513 744 3044 326 
Q 2575 -91 1722 -91 
Q 1428 -91 1123 -41 
Q 819 9 494 109 
L 494 744 
Q 775 591 1075 516 
Q 1375 441 1709 441 
Q 2250 441 2565 725 
Q 2881 1009 2881 1497 
Q 2881 1984 2565 2268 
Q 2250 2553 1709 2553 
Q 1456 2553 1204 2497 
Q 953 2441 691 2322 
L 691 4666 
z
" transform="scale(0.015625)"/>
       </defs>
       <use xlink:href="#DejaVuSans-35"/>
       <use xlink:href="#DejaVuSans-30" x="63.623047"/>
      </g>
     </g>
    </g>
    <g id="text_7">
     <!-- Generation -->
     <g transform="translate(229.669031 332.015763) scale(0.1 -0.1)">
      <defs>
       <path id="DejaVuSans-47" d="M 3809 666 
L 3809 1919 
L 2778 1919 
L 2778 2438 
L 4434 2438 
L 4434 434 
Q 4069 175 3628 42 
Q 3188 -91 2688 -91 
Q 1594 -91 976 548 
Q 359 1188 359 2328 
Q 359 3472 976 4111 
Q 1594 4750 2688 4750 
Q 3144 4750 3555 4637 
Q 3966 4525 4313 4306 
L 4313 3634 
Q 3963 3931 3569 4081 
Q 3175 4231 2741 4231 
Q 1884 4231 1454 3753 
Q 1025 3275 1025 2328 
Q 1025 1384 1454 906 
Q 1884 428 2741 428 
Q 3075 428 3337 486 
Q 3600 544 3809 666 
z
" transform="scale(0.015625)"/>
       <path id="DejaVuSans-65" d="M 3597 1894 
L 3597 1613 
L 953 1613 
Q 991 1019 1311 708 
Q 1631 397 2203 397 
Q 2534 397 2845 478 
Q 3156 559 3463 722 
L 3463 178 
Q 3153 47 2828 -22 
Q 2503 -91 2169 -91 
Q 1331 -91 842 396 
Q 353 884 353 1716 
Q 353 2575 817 3079 
Q 1281 3584 2069 3584 
Q 2775 3584 3186 3129 
Q 3597 2675 3597 1894 
z
M 3022 2063 
Q 3016 2534 2758 2815 
Q 2500 3097 2075 3097 
Q 1594 3097 1305 2825 
Q 1016 2553 972 2059 
L 3022 2063 
z
" transform="scale(0.015625)"/>
       <path id="DejaVuSans-6e" d="M 3513 2113 
L 3513 0 
L 2938 0 
L 2938 2094 
Q 2938 2591 2744 2837 
Q 2550 3084 2163 3084 
Q 1697 3084 1428 2787 
Q 1159 2491 1159 1978 
L 1159 0 
L 581 0 
L 581 3500 
L 1159 3500 
L 1159 2956 
Q 1366 3272 1645 3428 
Q 1925 3584 2291 3584 
Q 2894 3584 3203 3211 
Q 3513 2838 3513 2113 
z
" transform="scale(0.015625)"/>
       <path id="DejaVuSans-72" d="M 2631 2963 
Q 2534 3019 2420 3045 
Q 2306 3072 2169 3072 
Q 1681 3072 1420 2755 
Q 1159 2438 1159 1844 
L 1159 0 
L 581 0 
L 581 3500 
L 1159 3500 
L 1159 2956 
Q 1341 3275 1631 3429 
Q 1922 3584 2338 3584 
Q 2397 3584 2469 3576 
Q 2541 3569 2628 3553 
L 2631 2963 
z
" transform="scale(0.015625)"/>
       <path id="DejaVuSans-61" d="M 2194 1759 
Q 1497 1759 1228 1600 
Q 959 1441 959 1056 
Q 959 750 1161 570 
Q 1363 391 1709 391 
Q 2188 391 2477 730 
Q 2766 1069 2766 1631 
L 2766 1759 
L 2194 1759 
z
M 3341 1997 
L 3341 0 
L 2766 0 
L 2766 531 
Q 2569 213 2275 61 
Q 1981 -91 1556 -91 
Q 1019 -91 701 211 
Q 384 513 384 1019 
Q 384 1609 779 1909 
Q 1175 2209 1959 2209 
L 2766 2209 
L 2766 2266 
Q 2766 2663 2505 2880 
Q 2244 3097 1772 3097 
Q 1472 3097 1187 3025 
Q 903 2953 641 2809 
L 641 3341 
Q 956 3463 1253 3523 
Q 1550 3584 1831 3584 
Q 2591 3584 2966 3190 
Q 3341 2797 3341 1997 
z
" transform="scale(0.015625)"/>
       <path id="DejaVuSans-74" d="M 1172 4494 
L 1172 3500 
L 2356 3500 
L 2356 3053 
L 1172 3053 
L 1172 1153 
Q 1172 725 1289 603 
Q 1406 481 1766 481 
L 2356 481 
L 2356 0 
L 1766 0 
Q 1100 0 847 248 
Q 594 497 594 1153 
L 594 3053 
L 172 3053 
L 172 3500 
L 594 3500 
L 594 4494 
L 1172 4494 
z
" transform="scale(0.015625)"/>
       <path id="DejaVuSans-69" d="M 603 3500 
L 1178 3500 
L 1178 0 
L 603 0 
L 603 3500 
z
M 603 4863 
L 1178 4863 
L 1178 4134 
L 603 4134 
L 603 4863 
z
" transform="scale(0.015625)"/>
       <path id="DejaVuSans-6f" d="M 1959 3097 
Q 1497 3097 1228 2736 
Q 959 2375 959 1747 
Q 959 1119 1226 758 
Q 1494 397 1959 397 
Q 2419 397 2687 759 
Q 2956 1122 2956 1747 
Q 2956 2369 2687 2733 
Q 2419 3097 1959 3097 
z
M 1959 3584 
Q 2709 3584 3137 3096 
Q 3566 2609 3566 1747 
Q 3566 888 3137 398 
Q 2709 -91 1959 -91 
Q 1206 -91 779 398 
Q 353 888 353 1747 
Q 353 2609 779 3096 
Q 1206 3584 1959 3584 
z
" transform="scale(0.015625)"/>
      </defs>
      <use xlink:href="#DejaVuSans-47"/>
      <use xlink:href="#DejaVuSans-65" x="77.490234"/>
      <use xlink:href="#DejaVuSans-6e" x="139.013672"/>
      <use xlink:href="#DejaVuSans-65" x="202.392578"/>
      <use xlink:href="#DejaVuSans-72" x="263.916016"/>
      <use xlink:href="#DejaVuSans-61" x="305.029297"/>
      <use xlink:href="#DejaVuSans-74" x="366.308594"/>
      <use xlink:href="#DejaVuSans-69" x="405.517578"/>
      <use xlink:href="#DejaVuSans-6f" x="433.300781"/>
      <use xlink:href="#DejaVuSans-6e" x="494.482422"/>
     </g>
    </g>
   </g>
   <g id="matplotlib.axis_2">
    <g id="ytick_1">
     <g id="line2d_7">
      <defs>
       <path id="maa567ff726" d="M 0 0 
L -3.5 0 
" style="stroke: #000000; stroke-width: 0.8"/>
      </defs>
      <g>
       <use xlink:href="#maa567ff726" x="62.82" y="283.879277" style="stroke: #000000; stroke-width: 0.8"/>
      </g>
     </g>
     <g id="text_8">
      <!-- 70 -->
      <g transform="translate(43.095 287.678496) scale(0.1 -0.1)">
       <defs>
        <path id="DejaVuSans-37" d="M 525 4666 
L 3525 4666 
L 3525 4397 
L 1831 0 
L 1172 0 
L 2766 4134 
L 525 4134 
L 525 4666 
z
" transform="scale(0.015625)"/>
       </defs>
       <use xlink:href="#DejaVuSans-37"/>
       <use xlink:href="#DejaVuSans-30" x="63.623047"/>
      </g>
     </g>
    </g>
    <g id="ytick_2">
     <g id="line2d_8">
      <g>
       <use xlink:href="#maa567ff726" x="62.82" y="231.111791" style="stroke: #000000; stroke-width: 0.8"/>
      </g>
     </g>
     <g id="text_9">
      <!-- 75 -->
      <g transform="translate(43.095 234.911009) scale(0.1 -0.1)">
       <use xlink:href="#DejaVuSans-37"/>
       <use xlink:href="#DejaVuSans-35" x="63.623047"/>
      </g>
     </g>
    </g>
    <g id="ytick_3">
     <g id="line2d_9">
      <g>
       <use xlink:href="#maa567ff726" x="62.82" y="178.344304" style="stroke: #000000; stroke-width: 0.8"/>
      </g>
     </g>
     <g id="text_10">
      <!-- 80 -->
      <g transform="translate(43.095 182.143523) scale(0.1 -0.1)">
       <defs>
        <path id="DejaVuSans-38" d="M 2034 2216 
Q 1584 2216 1326 1975 
Q 1069 1734 1069 1313 
Q 1069 891 1326 650 
Q 1584 409 2034 409 
Q 2484 409 2743 651 
Q 3003 894 3003 1313 
Q 3003 1734 2745 1975 
Q 2488 2216 2034 2216 
z
M 1403 2484 
Q 997 2584 770 2862 
Q 544 3141 544 3541 
Q 544 4100 942 4425 
Q 1341 4750 2034 4750 
Q 2731 4750 3128 4425 
Q 3525 4100 3525 3541 
Q 3525 3141 3298 2862 
Q 3072 2584 2669 2484 
Q 3125 2378 3379 2068 
Q 3634 1759 3634 1313 
Q 3634 634 3220 271 
Q 2806 -91 2034 -91 
Q 1263 -91 848 271 
Q 434 634 434 1313 
Q 434 1759 690 2068 
Q 947 2378 1403 2484 
z
M 1172 3481 
Q 1172 3119 1398 2916 
Q 1625 2713 2034 2713 
Q 2441 2713 2670 2916 
Q 2900 3119 2900 3481 
Q 2900 3844 2670 4047 
Q 2441 4250 2034 4250 
Q 1625 4250 1398 4047 
Q 1172 3844 1172 3481 
z
" transform="scale(0.015625)"/>
       </defs>
       <use xlink:href="#DejaVuSans-38"/>
       <use xlink:href="#DejaVuSans-30" x="63.623047"/>
      </g>
     </g>
    </g>
    <g id="ytick_4">
     <g id="line2d_10">
      <g>
       <use xlink:href="#maa567ff726" x="62.82" y="125.576818" style="stroke: #000000; stroke-width: 0.8"/>
      </g>
     </g>
     <g id="text_11">
      <!-- 85 -->
      <g transform="translate(43.095 129.376037) scale(0.1 -0.1)">
       <use xlink:href="#DejaVuSans-38"/>
       <use xlink:href="#DejaVuSans-35" x="63.623047"/>
      </g>
     </g>
    </g>
    <g id="ytick_5">
     <g id="line2d_11">
      <g>
       <use xlink:href="#maa567ff726" x="62.82" y="72.809332" style="stroke: #000000; stroke-width: 0.8"/>
      </g>
     </g>
     <g id="text_12">
      <!-- 90 -->
      <g transform="translate(43.095 76.60855) scale(0.1 -0.1)">
       <defs>
        <path id="DejaVuSans-39" d="M 703 97 
L 703 672 
Q 941 559 1184 500 
Q 1428 441 1663 441 
Q 2288 441 2617 861 
Q 2947 1281 2994 2138 
Q 2813 1869 2534 1725 
Q 2256 1581 1919 1581 
Q 1219 1581 811 2004 
Q 403 2428 403 3163 
Q 403 3881 828 4315 
Q 1253 4750 1959 4750 
Q 2769 4750 3195 4129 
Q 3622 3509 3622 2328 
Q 3622 1225 3098 567 
Q 2575 -91 1691 -91 
Q 1453 -91 1209 -44 
Q 966 3 703 97 
z
M 1959 2075 
Q 2384 2075 2632 2365 
Q 2881 2656 2881 3163 
Q 2881 3666 2632 3958 
Q 2384 4250 1959 4250 
Q 1534 4250 1286 3958 
Q 1038 3666 1038 3163 
Q 1038 2656 1286 2365 
Q 1534 2075 1959 2075 
z
" transform="scale(0.015625)"/>
       </defs>
       <use xlink:href="#DejaVuSans-39"/>
       <use xlink:href="#DejaVuSans-30" x="63.623047"/>
      </g>
     </g>
    </g>
    <g id="text_13">
     <!-- Mean Best Fitness -->
     <g transform="translate(37.015313 217.537025) rotate(-90) scale(0.1 -0.1)">
      <defs>
       <path id="DejaVuSans-4d" d="M 628 4666 
L 1569 4666 
L 2759 1491 
L 3956 4666 
L 4897 4666 
L 4897 0 
L 4281 0 
L 4281 4097 
L 3078 897 
L 2444 897 
L 1241 4097 
L 1241 0 
L 628 0 
L 628 4666 
z
" transform="scale(0.015625)"/>
       <path id="DejaVuSans-20" transform="scale(0.015625)"/>
       <path id="DejaVuSans-42" d="M 1259 2228 
L 1259 519 
L 2272 519 
Q 2781 519 3026 730 
Q 3272 941 3272 1375 
Q 3272 1813 3026 2020 
Q 2781 2228 2272 2228 
L 1259 2228 
z
M 1259 4147 
L 1259 2741 
L 2194 2741 
Q 2656 2741 2882 2914 
Q 3109 3088 3109 3444 
Q 3109 3797 2882 3972 
Q 2656 4147 2194 4147 
L 1259 4147 
z
M 628 4666 
L 2241 4666 
Q 2963 4666 3353 4366 
Q 3744 4066 3744 3513 
Q 3744 3084 3544 2831 
Q 3344 2578 2956 2516 
Q 3422 2416 3680 2098 
Q 3938 1781 3938 1306 
Q 3938 681 3513 340 
Q 3088 0 2303 0 
L 628 0 
L 628 4666 
z
" transform="scale(0.015625)"/>
       <path id="DejaVuSans-73" d="M 2834 3397 
L 2834 2853 
Q 2591 2978 2328 3040 
Q 2066 3103 1784 3103 
Q 1356 3103 1142 2972 
Q 928 2841 928 2578 
Q 928 2378 1081 2264 
Q 1234 2150 1697 2047 
L 1894 2003 
Q 2506 1872 2764 1633 
Q 3022 1394 3022 966 
Q 3022 478 2636 193 
Q 2250 -91 1575 -91 
Q 1294 -91 989 -36 
Q 684 19 347 128 
L 347 722 
Q 666 556 975 473 
Q 1284 391 1588 391 
Q 1994 391 2212 530 
Q 2431 669 2431 922 
Q 2431 1156 2273 1281 
Q 2116 1406 1581 1522 
L 1381 1569 
Q 847 1681 609 1914 
Q 372 2147 372 2553 
Q 372 3047 722 3315 
Q 1072 3584 1716 3584 
Q 2034 3584 2315 3537 
Q 2597 3491 2834 3397 
z
" transform="scale(0.015625)"/>
       <path id="DejaVuSans-46" d="M 628 4666 
L 3309 4666 
L 3309 4134 
L 1259 4134 
L 1259 2759 
L 3109 2759 
L 3109 2228 
L 1259 2228 
L 1259 0 
L 628 0 
L 628 4666 
z
" transform="scale(0.015625)"/>
      </defs>
      <use xlink:href="#DejaVuSans-4d"/>
      <use xlink:href="#DejaVuSans-65" x="86.279297"/>
      <use xlink:href="#DejaVuSans-61" x="147.802734"/>
      <use xlink:href="#DejaVuSans-6e" x="209.082031"/>
      <use xlink:href="#DejaVuSans-20" x="272.460938"/>
      <use xlink:href="#DejaVuSans-42" x="304.248047"/>
      <use xlink:href="#DejaVuSans-65" x="372.851562"/>
      <use xlink:href="#DejaVuSans-73" x="434.375"/>
      <use xlink:href="#DejaVuSans-74" x="486.474609"/>
      <use xlink:href="#DejaVuSans-20" x="525.683594"/>
      <use xlink:href="#DejaVuSans-46" x="557.470703"/>
      <use xlink:href="#DejaVuSans-69" x="607.740234"/>
      <use xlink:href="#DejaVuSans-74" x="635.523438"/>
      <use xlink:href="#DejaVuSans-6e" x="674.732422"/>
      <use xlink:href="#DejaVuSans-65" x="738.111328"/>
      <use xlink:href="#DejaVuSans-73" x="799.634766"/>
      <use xlink:href="#DejaVuSans-73" x="851.734375"/>
     </g>
    </g>
   </g>
   <g id="line2d_12">
    <path d="M 80.523818 291.7944 
L 87.749866 280.185553 
L 94.975915 266.993681 
L 102.201963 259.078558 
L 109.428011 253.274135 
L 116.654059 245.359012 
L 123.880108 240.609938 
L 131.106156 235.860864 
L 138.332204 231.639466 
L 145.558252 227.593958 
L 152.784301 223.724343 
L 160.010349 219.854727 
L 167.236397 217.392244 
L 174.462445 215.281545 
L 181.688494 212.467279 
L 188.914542 210.532471 
L 196.14059 209.125338 
L 203.366638 208.069988 
L 210.592686 206.13518 
L 217.818735 204.903939 
L 225.044783 204.376264 
L 232.270831 203.145023 
L 239.496879 202.79324 
L 246.722928 201.913782 
L 253.948976 201.73789 
L 261.175024 201.210215 
L 268.401072 200.858432 
L 275.627121 200.858432 
L 282.853169 200.68254 
L 290.079217 200.330757 
L 297.305265 200.154865 
L 304.531314 199.978974 
L 311.757362 199.62719 
L 318.98341 199.62719 
L 326.209458 199.451299 
L 333.435506 199.275407 
L 340.661555 199.099516 
L 347.887603 198.923624 
L 355.113651 198.923624 
L 362.339699 198.923624 
L 369.565748 198.923624 
L 376.791796 198.923624 
L 384.017844 198.747732 
L 391.243892 198.571841 
L 398.469941 198.395949 
L 405.695989 197.868274 
L 412.922037 197.868274 
L 420.148085 197.868274 
L 427.374134 197.868274 
L 434.600182 197.868274 
" clip-path="url(#p50bcf79469)" style="fill: none; stroke: #1f77b4; stroke-width: 1.5; stroke-linecap: square"/>
   </g>
   <g id="line2d_13">
    <path d="M 80.523818 198.45458 
L 87.749866 185.790383 
L 94.975915 177.523477 
L 102.201963 169.373832 
L 109.428011 163.921191 
L 116.654059 156.944157 
L 123.880108 152.370975 
L 131.106156 147.856423 
L 138.332204 142.931458 
L 145.558252 138.534167 
L 152.784301 135.778532 
L 160.010349 131.322611 
L 167.236397 128.684237 
L 174.462445 125.049143 
L 181.688494 120.710483 
L 188.914542 117.427173 
L 196.14059 114.612907 
L 203.366638 111.153705 
L 210.592686 108.749853 
L 217.818735 105.290651 
L 225.044783 102.652277 
L 232.270831 100.307055 
L 239.496879 98.372247 
L 246.722928 95.499351 
L 253.948976 93.564543 
L 261.175024 91.395213 
L 268.401072 89.753558 
L 275.627121 87.642858 
L 282.853169 85.297637 
L 290.079217 83.773243 
L 297.305265 81.721174 
L 304.531314 80.372671 
L 311.757362 78.613755 
L 318.98341 77.147992 
L 326.209458 75.389075 
L 333.435506 73.74742 
L 340.661555 72.750701 
L 347.887603 71.402199 
L 355.113651 70.170957 
L 362.339699 68.822455 
L 369.565748 67.532583 
L 376.791796 66.829016 
L 384.017844 65.539145 
L 391.243892 65.0701 
L 398.469941 64.307903 
L 405.695989 63.604337 
L 412.922037 62.666248 
L 420.148085 61.904051 
L 427.374134 61.259115 
L 434.600182 60.555549 
" clip-path="url(#p50bcf79469)" style="fill: none; stroke: #ff7f0e; stroke-width: 1.5; stroke-linecap: square"/>
   </g>
   <g id="line2d_14">
    <path d="M 80.523818 193.75241 
L 87.749866 185.204078 
L 94.975915 176.515031 
L 102.201963 169.268297 
L 109.428011 163.076912 
L 116.654059 158.503729 
L 123.880108 153.438051 
L 131.106156 148.935225 
L 138.332204 144.678648 
L 145.558252 140.527606 
L 152.784301 135.637819 
L 160.010349 131.873738 
L 167.236397 128.250371 
L 174.462445 124.802895 
L 181.688494 120.933279 
L 188.914542 117.9783 
L 196.14059 114.882607 
L 203.366638 112.596016 
L 210.592686 110.098355 
L 217.818735 105.947313 
L 225.044783 102.957155 
L 232.270831 99.544858 
L 239.496879 96.5547 
L 246.722928 93.881148 
L 253.948976 92.087053 
L 261.175024 89.096896 
L 268.401072 86.599235 
L 275.627121 84.17193 
L 282.853169 82.201944 
L 290.079217 80.513385 
L 297.305265 78.789647 
L 304.531314 76.714126 
L 311.757362 75.095923 
L 318.98341 73.759146 
L 326.209458 72.070587 
L 333.435506 69.995066 
L 340.661555 68.834181 
L 347.887603 67.356691 
L 355.113651 65.597775 
L 362.339699 64.155464 
L 369.565748 63.346362 
L 376.791796 62.255834 
L 384.017844 60.391383 
L 391.243892 59.300855 
L 398.469941 58.456575 
L 405.695989 57.190156 
L 412.922037 56.134806 
L 420.148085 55.149813 
L 427.374134 54.129641 
L 434.600182 52.8984 
" clip-path="url(#p50bcf79469)" style="fill: none; stroke: #2ca02c; stroke-width: 1.5; stroke-linecap: square"/>
   </g>
   <g id="line2d_15">
    <path d="M 80.523818 201.109706 
L 87.749866 192.692035 
L 94.975915 185.606116 
L 102.201963 177.71612 
L 109.428011 172.841409 
L 116.654059 166.509311 
L 123.880108 161.835619 
L 131.106156 157.589093 
L 138.332204 153.769732 
L 145.558252 150.402664 
L 152.784301 146.633558 
L 160.010349 142.964961 
L 167.236397 139.974803 
L 174.462445 136.029806 
L 181.688494 133.014521 
L 188.914542 129.67258 
L 196.14059 126.406021 
L 203.366638 123.566628 
L 210.592686 120.19956 
L 217.818735 116.933001 
L 225.044783 114.596155 
L 232.270831 112.560838 
L 239.496879 109.646062 
L 246.722928 107.384599 
L 253.948976 104.419569 
L 261.175024 102.20836 
L 268.401072 99.745877 
L 275.627121 97.157757 
L 282.853169 94.469128 
L 290.079217 92.257919 
L 297.305265 90.448748 
L 304.531314 89.116998 
L 311.757362 87.056553 
L 318.98341 84.870471 
L 326.209458 82.960791 
L 333.435506 81.754677 
L 340.661555 79.643977 
L 347.887603 78.412736 
L 355.113651 77.156367 
L 362.339699 75.925126 
L 369.565748 73.990318 
L 376.791796 72.583185 
L 384.017844 70.899651 
L 391.243892 69.341754 
L 398.469941 68.462296 
L 405.695989 66.728507 
L 412.922037 65.421883 
L 420.148085 64.366534 
L 427.374134 62.406598 
L 434.600182 61.401504 
" clip-path="url(#p50bcf79469)" style="fill: none; stroke: #d62728; stroke-width: 1.5; stroke-linecap: square"/>
   </g>
   <g id="patch_3">
    <path d="M 62.82 303.7392 
L 62.82 40.9536 
" style="fill: none; stroke: #000000; stroke-width: 0.8; stroke-linejoin: miter; stroke-linecap: square"/>
   </g>
   <g id="patch_4">
    <path d="M 452.304 303.7392 
L 452.304 40.9536 
" style="fill: none; stroke: #000000; stroke-width: 0.8; stroke-linejoin: miter; stroke-linecap: square"/>
   </g>
   <g id="patch_5">
    <path d="M 62.82 303.7392 
L 452.304 303.7392 
" style="fill: none; stroke: #000000; stroke-width: 0.8; stroke-linejoin: miter; stroke-linecap: square"/>
   </g>
   <g id="patch_6">
    <path d="M 62.82 40.9536 
L 452.304 40.9536 
" style="fill: none; stroke: #000000; stroke-width: 0.8; stroke-linejoin: miter; stroke-linecap: square"/>
   </g>
   <g id="text_14">
    <!-- Mean Best Fitness over Generations -->
    <g transform="translate(149.541375 34.9536) scale(0.12 -0.12)">
     <defs>
      <path id="DejaVuSans-76" d="M 191 3500 
L 800 3500 
L 1894 563 
L 2988 3500 
L 3597 3500 
L 2284 0 
L 1503 0 
L 191 3500 
z
" transform="scale(0.015625)"/>
     </defs>
     <use xlink:href="#DejaVuSans-4d"/>
     <use xlink:href="#DejaVuSans-65" x="86.279297"/>
     <use xlink:href="#DejaVuSans-61" x="147.802734"/>
     <use xlink:href="#DejaVuSans-6e" x="209.082031"/>
     <use xlink:href="#DejaVuSans-20" x="272.460938"/>
     <use xlink:href="#DejaVuSans-42" x="304.248047"/>
     <use xlink:href="#DejaVuSans-65" x="372.851562"/>
     <use xlink:href="#DejaVuSans-73" x="434.375"/>
     <use xlink:href="#DejaVuSans-74" x="486.474609"/>
     <use xlink:href="#DejaVuSans-20" x="525.683594"/>
     <use xlink:href="#DejaVuSans-46" x="557.470703"/>
     <use xlink:href="#DejaVuSans-69" x="607.740234"/>
     <use xlink:href="#DejaVuSans-74" x="635.523438"/>
     <use xlink:href="#DejaVuSans-6e" x="674.732422"/>
     <use xlink:href="#DejaVuSans-65" x="738.111328"/>
     <use xlink:href="#DejaVuSans-73" x="799.634766"/>
     <use xlink:href="#DejaVuSans-73" x="851.734375"/>
     <use xlink:href="#DejaVuSans-20" x="903.833984"/>
     <use xlink:href="#DejaVuSans-6f" x="935.621094"/>
     <use xlink:href="#DejaVuSans-76" x="996.802734"/>
     <use xlink:href="#DejaVuSans-65" x="1055.982422"/>
     <use xlink:href="#DejaVuSans-72" x="1117.505859"/>
     <use xlink:href="#DejaVuSans-20" x="1158.619141"/>
     <use xlink:href="#DejaVuSans-47" x="1190.40625"/>
     <use xlink:href="#DejaVuSans-65" x="1267.896484"/>
     <use xlink:href="#DejaVuSans-6e" x="1329.419922"/>
     <use xlink:href="#DejaVuSans-65" x="1392.798828"/>
     <use xlink:href="#DejaVuSans-72" x="1454.322266"/>
     <use xlink:href="#DejaVuSans-61" x="1495.435547"/>
     <use xlink:href="#DejaVuSans-74" x="1556.714844"/>
     <use xlink:href="#DejaVuSans-69" x="1595.923828"/>
     <use xlink:href="#DejaVuSans-6f" x="1623.707031"/>
     <use xlink:href="#DejaVuSans-6e" x="1684.888672"/>
     <use xlink:href="#DejaVuSans-73" x="1748.267578"/>
    </g>
   </g>
   <g id="legend_1">
    <g id="patch_7">
     <path d="M 69.82 108.9536 
L 142.373125 108.9536 
Q 144.373125 108.9536 144.373125 106.9536 
L 144.373125 47.9536 
Q 144.373125 45.9536 142.373125 45.9536 
L 69.82 45.9536 
Q 67.82 45.9536 67.82 47.9536 
L 67.82 106.9536 
Q 67.82 108.9536 69.82 108.9536 
z
" style="fill: #ffffff; opacity: 0.8; stroke: #cccccc; stroke-linejoin: miter"/>
    </g>
    <g id="line2d_16">
     <path d="M 71.82 54.095787 
L 81.82 54.095787 
L 91.82 54.095787 
" style="fill: none; stroke: #1f77b4; stroke-width: 1.5; stroke-linecap: square"/>
    </g>
    <g id="text_15">
     <!-- |S|=50 -->
     <g transform="translate(99.82 57.595787) scale(0.1 -0.1)">
      <defs>
       <path id="DejaVuSans-7c" d="M 1344 4891 
L 1344 -1509 
L 813 -1509 
L 813 4891 
L 1344 4891 
z
" transform="scale(0.015625)"/>
       <path id="DejaVuSans-53" d="M 3425 4513 
L 3425 3897 
Q 3066 4069 2747 4153 
Q 2428 4238 2131 4238 
Q 1616 4238 1336 4038 
Q 1056 3838 1056 3469 
Q 1056 3159 1242 3001 
Q 1428 2844 1947 2747 
L 2328 2669 
Q 3034 2534 3370 2195 
Q 3706 1856 3706 1288 
Q 3706 609 3251 259 
Q 2797 -91 1919 -91 
Q 1588 -91 1214 -16 
Q 841 59 441 206 
L 441 856 
Q 825 641 1194 531 
Q 1563 422 1919 422 
Q 2459 422 2753 634 
Q 3047 847 3047 1241 
Q 3047 1584 2836 1778 
Q 2625 1972 2144 2069 
L 1759 2144 
Q 1053 2284 737 2584 
Q 422 2884 422 3419 
Q 422 4038 858 4394 
Q 1294 4750 2059 4750 
Q 2388 4750 2728 4690 
Q 3069 4631 3425 4513 
z
" transform="scale(0.015625)"/>
       <path id="DejaVuSans-3d" d="M 678 2906 
L 4684 2906 
L 4684 2381 
L 678 2381 
L 678 2906 
z
M 678 1631 
L 4684 1631 
L 4684 1100 
L 678 1100 
L 678 1631 
z
" transform="scale(0.015625)"/>
      </defs>
      <use xlink:href="#DejaVuSans-7c"/>
      <use xlink:href="#DejaVuSans-53" x="33.691406"/>
      <use xlink:href="#DejaVuSans-7c" x="97.167969"/>
      <use xlink:href="#DejaVuSans-3d" x="130.859375"/>
      <use xlink:href="#DejaVuSans-35" x="214.648438"/>
      <use xlink:href="#DejaVuSans-30" x="278.271484"/>
     </g>
    </g>
    <g id="line2d_17">
     <path d="M 71.82 69.095787 
L 81.82 69.095787 
L 91.82 69.095787 
" style="fill: none; stroke: #ff7f0e; stroke-width: 1.5; stroke-linecap: square"/>
    </g>
    <g id="text_16">
     <!-- |S|=150 -->
     <g transform="translate(99.82 72.595787) scale(0.1 -0.1)">
      <use xlink:href="#DejaVuSans-7c"/>
      <use xlink:href="#DejaVuSans-53" x="33.691406"/>
      <use xlink:href="#DejaVuSans-7c" x="97.167969"/>
      <use xlink:href="#DejaVuSans-3d" x="130.859375"/>
      <use xlink:href="#DejaVuSans-31" x="214.648438"/>
      <use xlink:href="#DejaVuSans-35" x="278.271484"/>
      <use xlink:href="#DejaVuSans-30" x="341.894531"/>
     </g>
    </g>
    <g id="line2d_18">
     <path d="M 71.82 84.095787 
L 81.82 84.095787 
L 91.82 84.095787 
" style="fill: none; stroke: #2ca02c; stroke-width: 1.5; stroke-linecap: square"/>
    </g>
    <g id="text_17">
     <!-- |S|=250 -->
     <g transform="translate(99.82 87.595787) scale(0.1 -0.1)">
      <use xlink:href="#DejaVuSans-7c"/>
      <use xlink:href="#DejaVuSans-53" x="33.691406"/>
      <use xlink:href="#DejaVuSans-7c" x="97.167969"/>
      <use xlink:href="#DejaVuSans-3d" x="130.859375"/>
      <use xlink:href="#DejaVuSans-32" x="214.648438"/>
      <use xlink:href="#DejaVuSans-35" x="278.271484"/>
      <use xlink:href="#DejaVuSans-30" x="341.894531"/>
     </g>
    </g>
    <g id="line2d_19">
     <path d="M 71.82 99.095787 
L 81.82 99.095787 
L 91.82 99.095787 
" style="fill: none; stroke: #d62728; stroke-width: 1.5; stroke-linecap: square"/>
    </g>
    <g id="text_18">
     <!-- |S|=350 -->
     <g transform="translate(99.82 102.595787) scale(0.1 -0.1)">
      <use xlink:href="#DejaVuSans-7c"/>
      <use xlink:href="#DejaVuSans-53" x="33.691406"/>
      <use xlink:href="#DejaVuSans-7c" x="97.167969"/>
      <use xlink:href="#DejaVuSans-3d" x="130.859375"/>
      <use xlink:href="#DejaVuSans-33" x="214.648438"/>
      <use xlink:href="#DejaVuSans-35" x="278.271484"/>
      <use xlink:href="#DejaVuSans-30" x="341.894531"/>
     </g>
    </g>
   </g>
  </g>
 </g>
 <defs>
  <clipPath id="p50bcf79469">
   <rect x="62.82" y="40.9536" width="389.484" height="262.7856"/>
  </clipPath>
 </defs>
</svg>
